<svg xmlns="http://www.w3.org/2000/svg" width="22" height="22" fill="none"><path fill="#F2F2F3" d="M9.385 1.656c.197-.467-.345-.897-.755-.6L.412 7.035A1 1 0 0 0 0 7.843v4.64a.5.5 0 0 0 .33.47l2.826 1.026a1 1 0 0 0 1.263-.552L9.385 1.656ZM.621 14.908a.456.456 0 0 0-.41.81l9.02 5.74c.102.064.21-.074.123-.157l-5.128-4.913a1.001 1.001 0 0 0-.33-.21L.62 14.908ZM12.646 21.3c-.087.084.021.222.123.157l9.02-5.74a.456.456 0 0 0-.41-.81l-3.274 1.27c-.123.048-.235.12-.33.21l-5.128 4.914ZM21.67 12.953a.5.5 0 0 0 .33-.47v-4.64a1 1 0 0 0-.412-.81L13.37 1.058c-.41-.298-.952.132-.755.599l4.966 11.771a1 1 0 0 0 1.263.552l2.826-1.026ZM11.714 19.962a1 1 0 0 1-1.428 0l-4.18-4.265a1 1 0 0 1-.216-1.065L10.069 3.97c.332-.847 1.53-.847 1.862 0l4.18 10.662a1 1 0 0 1-.217 1.065l-4.18 4.265Z"/></svg>